<svg xmlns="http://www.w3.org/2000/svg" xmlns:xlink="http://www.w3.org/1999/xlink" width="24" height="24" viewBox="0 0 24 24" fill="none"><g opacity="1"  transform="translate(0 0)"><mask id="bg-mask-0" fill="white"><use transform="translate(0 0)" xlink:href="#path_0"></use></mask><g mask="url(#bg-mask-0)" ><path id="路径 1" fill-rule="evenodd" style="fill:#8383F2" opacity="1" d="M12 22C17.5228 22 22 17.5228 22 12C22 6.47715 17.5228 2 12 2C6.47715 2 2 6.47715 2 12C2 17.5228 6.47715 22 12 22ZM7.75735 9.17157C7.36683 8.78104 7.36683 8.14788 7.75735 7.75736C8.14788 7.36683 8.78104 7.36683 9.17157 7.75736L12 10.5858L14.8284 7.75736C15.219 7.36684 15.8521 7.36684 16.2426 7.75736C16.6332 8.14789 16.6332 8.78105 16.2426 9.17158L13.4142 12L16.2426 14.8284C16.6332 15.2189 16.6332 15.8521 16.2426 16.2426C15.8521 16.6332 15.2189 16.6332 14.8284 16.2426L12 13.4142L9.17158 16.2426C8.78105 16.6332 8.14789 16.6332 7.75736 16.2426C7.36684 15.8521 7.36684 15.219 7.75736 14.8284L10.5858 12L7.75735 9.17157Z"></path><path id="路径 2" fill-rule="evenodd" style="fill:#CAC4FF" opacity="1" d="M7.75448 9.17448L10.5845 12.0045L7.75448 14.8245C7.36448 15.2145 7.36448 15.8545 7.75448 16.2445C8.14448 16.6345 8.78448 16.6345 9.17448 16.2445L12.0045 13.4145L14.8245 16.2445C15.2145 16.6345 15.8545 16.6345 16.2445 16.2445C16.6345 15.8545 16.6345 15.2145 16.2445 14.8245L13.4145 12.0045L16.2445 9.17448C16.6345 8.78448 16.6345 8.14448 16.2445 7.75448C15.8545 7.36448 15.2145 7.36448 14.8245 7.75448L12.0045 10.5845L9.17448 7.75448C8.78448 7.36448 8.14448 7.36448 7.75448 7.75448C7.36448 8.14448 7.36448 8.78448 7.75448 9.17448Z"></path></g></g><defs><rect id="path_0" x="0" y="0" width="24" height="24" rx="0" ry="0"/></defs></svg>