<svg xmlns="http://www.w3.org/2000/svg" xmlns:xlink="http://www.w3.org/1999/xlink" width="24" height="24" viewBox="0 0 24 24" fill="none"><g opacity="1"  transform="translate(0 0)"><mask id="bg-mask-0" fill="white"><use transform="translate(0 0)" xlink:href="#path_0"></use></mask><g mask="url(#bg-mask-0)" ><path id="路径 1" fill-rule="evenodd" style="fill:#8383F2" opacity="1" d="M13 20C13 21.1 13.9 22 15 22L20 22C21.1 22 22 21.1 22 20L22 15C22 13.9 21.1 13 20 13L15 13C13.9 13 13 13.9 13 15L13 20Z"></path><path id="路径 2" fill-rule="evenodd" style="fill:#8383F2" opacity="1" d="M2 20C2 21.1 2.9 22 4 22L9 22C10.1 22 11 21.1 11 20L11 15C11 13.9 10.1 13 9 13L4 13C2.9 13 2 13.9 2 15L2 20Z"></path><path id="路径 3" fill-rule="evenodd" style="fill:#CAC4FF" opacity="1" d="M13 9C13 10.1 13.9 11 15 11L20 11C21.1 11 22 10.1 22 9L22 4C22 2.9 21.1 2 20 2L15 2C13.9 2 13 2.9 13 4L13 9Z"></path><path id="路径 4" fill-rule="evenodd" style="fill:#8383F2" opacity="1" d="M2 9C2 10.1 2.9 11 4 11L9 11C10.1 11 11 10.1 11 9L11 4C11 2.9 10.1 2 9 2L4 2C2.9 2 2 2.9 2 4L2 9Z"></path></g></g><defs><rect id="path_0" x="0" y="0" width="24" height="24" rx="0" ry="0"/></defs></svg>