<svg xmlns="http://www.w3.org/2000/svg" xmlns:xlink="http://www.w3.org/1999/xlink" width="24" height="22" viewBox="0 0 24 22" fill="none"><g opacity="1"  transform="translate(0 0)"><mask id="bg-mask-0" fill="white"><use transform="translate(0 0)" xlink:href="#path_0"></use></mask><g mask="url(#bg-mask-0)" ><path id="路径 1" fill-rule="evenodd" style="fill:#CAC4FF" opacity="1" d="M18.95 19.3933L17.61 14.5733C17.55 14.3333 17.61 14.0833 17.79 13.9033L21.97 9.66333C22.4 9.22333 22.11 8.52333 21.47 8.45333L16.18 7.85333C15.91 7.82333 15.68 7.67333 15.56 7.45333L12.76 2.31333C12.5 1.83333 12 1.83333 12 1.83333L12 17.1333L17.77 20.2033C18.38 20.5333 19.12 20.0233 18.95 19.3933Z"></path><path id="路径 2" fill-rule="evenodd" style="fill:#8383F2" opacity="1" d="M11.9959 17.1333L11.9959 1.83333C11.9959 1.83333 11.4959 1.83333 11.2459 2.31333L8.44593 7.45333C8.32593 7.67333 8.08593 7.82333 7.82593 7.85333L2.52593 8.45333C1.88593 8.52333 1.59593 9.22333 2.03593 9.66333L6.20593 13.9033C6.38593 14.0833 6.45593 14.3333 6.38593 14.5733L5.05593 19.3933C4.87593 20.0233 5.61593 20.5333 6.22593 20.2033L11.9959 17.1333Z"></path></g></g><defs><rect id="path_0" x="0" y="0" width="24" height="22" rx="0" ry="0"/></defs></svg>