<svg xmlns="http://www.w3.org/2000/svg" xmlns:xlink="http://www.w3.org/1999/xlink" width="24" height="24" viewBox="0 0 24 24" fill="none"><g opacity="1"  transform="translate(0 0)"><mask id="bg-mask-0" fill="white"><use transform="translate(0 0)" xlink:href="#path_0"></use></mask><g mask="url(#bg-mask-0)" ><path id="路径 1" fill-rule="evenodd" style="fill:#8383F2" opacity="1" d="M11.6156 20.9128C9.78063 20.0415 2 15.9769 2 9.69623C2 6.55029 4.55837 4 7.71429 4C9.33962 4 10.8065 4.67643 11.847 5.76229C11.93 5.84898 12.07 5.84898 12.153 5.76229C13.1935 4.67643 14.6604 4 16.2857 4C19.4416 4 22 6.55029 22 9.69623C22 15.9769 14.2194 20.0415 12.3844 20.9128C12.1379 21.0298 11.8621 21.0298 11.6156 20.9128ZM7 8C6.44772 8 6 8.44772 6 9C6 9.55228 6.44772 10 7 10C7.55228 10 8 9.55228 8 9C8 8.44772 7.55228 8 7 8Z"></path><path id="路径 2" fill-rule="evenodd" style="fill:#CAC4FF" opacity="1" d="M6 9C6 9.55 6.45 10 7 10C7.55 10 8 9.55 8 9C8 8.45 7.55 8 7 8C6.45 8 6 8.45 6 9Z"></path></g></g><defs><rect id="path_0" x="0" y="0" width="24" height="24" rx="0" ry="0"/></defs></svg>